<svg xmlns="http://www.w3.org/2000/svg" xmlns:xlink="http://www.w3.org/1999/xlink" width="2000" zoomAndPan="magnify" viewBox="0 0 1500 1499.999933" height="2000" preserveAspectRatio="xMidYMid meet" version="1.0"><defs><clipPath id="63c2f6da84"><path d="M 0 50.625 L 1500 50.625 L 1500 1449.375 L 0 1449.375 Z M 0 50.625 " clip-rule="nonzero"/></clipPath></defs><g clip-path="url(#63c2f6da84)"><path fill="#396c5e" d="M 714.617188 1040.136719 C 714.617188 1042.066406 727.753906 1042.527344 743.878906 1041.148438 L 773.101562 1038.714844 L 788.394531 1054.011719 C 796.851562 1062.464844 807.507812 1069.3125 812.105469 1069.3125 C 836.175781 1069.3125 865.488281 1096.371094 872.425781 1125.035156 C 873.984375 1131.378906 877.847656 1136.570312 880.96875 1136.570312 C 884.324219 1136.570312 885.699219 1133.996094 884.277344 1130.273438 C 882.488281 1125.632812 884.785156 1123.980469 892.960938 1123.980469 C 919.421875 1123.980469 941.613281 1141.574219 948.226562 1167.855469 C 951.214844 1179.890625 961.367188 1180.351562 959.207031 1168.359375 C 956.496094 1153.472656 973.171875 1164.089844 983.648438 1183.886719 C 994.257812 1204.054688 1000.417969 1209.066406 1000.417969 1197.535156 C 1000.417969 1187.746094 1025.039062 1189.722656 1046.722656 1201.207031 C 1057.613281 1206.953125 1070.890625 1218.941406 1078.148438 1229.554688 C 1088.074219 1244.117188 1091.015625 1246.320312 1092.207031 1240.121094 C 1093.035156 1235.753906 1089.773438 1226.84375 1084.902344 1220.320312 C 1080.078125 1213.75 1076.082031 1206.355469 1076.082031 1203.917969 C 1076.082031 1197.257812 1096.894531 1190.597656 1113.800781 1191.789062 C 1121.976562 1192.386719 1129.234375 1191.097656 1129.925781 1188.894531 C 1131.761719 1183.382812 1114.304688 1179.339844 1099.835938 1181.910156 C 1088.121094 1183.976562 1088.441406 1183.199219 1115.085938 1144.5625 C 1130.015625 1122.832031 1145.269531 1099.402344 1148.992188 1092.464844 C 1162.039062 1067.839844 1160.75 1068.023438 1191.898438 1085.066406 C 1218.316406 1099.539062 1221.992188 1103.171875 1232.742188 1126.140625 C 1239.265625 1139.96875 1246.894531 1155.910156 1249.691406 1161.5625 C 1252.769531 1167.808594 1263.15625 1175.203125 1276.199219 1180.488281 C 1304.867188 1192.066406 1310.015625 1196.890625 1324.945312 1226.703125 C 1331.976562 1240.714844 1346.035156 1261.070312 1356.136719 1271.957031 C 1376.171875 1293.503906 1379.523438 1308.34375 1367.992188 1324.835938 C 1357.792969 1339.355469 1339.414062 1346.792969 1298.578125 1352.859375 C 1269.265625 1357.269531 1256.308594 1361.542969 1239.542969 1372.292969 C 1219.371094 1385.246094 1214.914062 1386.304688 1169.113281 1388.878906 C 1130.15625 1391.128906 1115.957031 1393.703125 1099.234375 1401.695312 C 1079.664062 1411.066406 1073.28125 1411.757812 1006.757812 1411.847656 C 939.363281 1411.894531 933.15625 1412.585938 898.011719 1424.117188 C 862.269531 1435.832031 859.421875 1436.105469 828.644531 1431.464844 C 784.953125 1424.804688 757.617188 1425.355469 716.960938 1433.71875 C 684.203125 1440.46875 681.035156 1440.425781 653.378906 1433.210938 C 577.070312 1413.269531 574.679688 1413.042969 524.558594 1422.183594 C 473.148438 1431.605469 464.007812 1430.730469 414.070312 1411.527344 C 390.59375 1402.523438 374.007812 1399.628906 332.109375 1397.144531 C 288.003906 1394.621094 275.832031 1392.324219 256.445312 1383.089844 C 237.242188 1373.902344 227.320312 1372.019531 197.59375 1371.925781 C 160.566406 1371.789062 150.550781 1368.617188 111.730469 1344.863281 C 102.636719 1339.308594 82.972656 1331.726562 68.039062 1327.957031 C 13.09375 1314.175781 1.378906 1300.945312 16.449219 1269.84375 C 24.535156 1253.167969 39.050781 1237.777344 89.035156 1192.9375 C 98.222656 1184.667969 106.953125 1170.519531 112.921875 1154.164062 C 123.769531 1124.441406 136.859375 1107.304688 158.914062 1094.023438 C 218.636719 1058.101562 226.078125 1049.832031 243.441406 1000.261719 C 253.964844 970.125 267.839844 954.6875 298.480469 939.019531 C 327.058594 924.367188 337.027344 915.132812 351.542969 889.636719 C 372.949219 852.054688 387.421875 840.480469 432.398438 824.996094 C 459.136719 815.804688 472.460938 804.828125 483.898438 782.5 C 493.5 763.753906 505.445312 755.304688 532.550781 748.042969 C 543.667969 745.101562 565.722656 735.777344 581.523438 727.371094 C 624.34375 704.535156 651.261719 707.0625 691.738281 737.753906 C 707.175781 749.421875 720.773438 755.488281 741.171875 759.757812 C 763.820312 764.539062 772.914062 768.992188 787.570312 782.5 C 797.632812 791.777344 810.035156 800.691406 815.179688 802.300781 C 820.328125 803.953125 823.5 807.492188 822.257812 810.15625 C 819.089844 816.957031 783.667969 905.804688 780.359375 915.269531 C 777.878906 922.34375 776.269531 921.839844 762.761719 910.03125 C 754.632812 902.863281 746.128906 896.984375 743.878906 896.984375 C 738 896.984375 738.921875 904.429688 745.304688 908.332031 C 748.292969 910.167969 755.09375 917.886719 760.371094 925.46875 C 769.378906 938.378906 769.65625 940.582031 764.601562 960.152344 C 761.660156 971.640625 758.214844 981.011719 756.882812 980.917969 C 755.59375 980.828125 749.808594 978.074219 744.019531 974.765625 C 731.9375 967.828125 706.207031 966.402344 706.207031 972.652344 C 706.207031 974.949219 711.769531 976.878906 718.566406 976.878906 C 725.457031 976.878906 735.980469 981.195312 742.226562 986.523438 C 751.78125 994.746094 753.023438 998.285156 750.5 1009.863281 C 748.109375 1020.613281 744.019531 1024.839844 731.0625 1030.03125 C 722.015625 1033.660156 714.617188 1038.207031 714.617188 1040.136719 Z M 926.035156 1026.492188 C 911.839844 1074.960938 911.335938 1078.683594 917.953125 1085.296875 C 924.339844 1091.726562 926.035156 1091.773438 936.46875 1085.988281 C 949.191406 1078.820312 1073.96875 910.214844 1069.601562 905.988281 C 1065.421875 901.902344 1039.648438 932.683594 997.339844 992.3125 C 952.546875 1055.390625 931.089844 1081.070312 926.636719 1076.707031 C 924.890625 1075.007812 928.425781 1057.042969 934.585938 1036.785156 C 960.679688 950.597656 977.675781 859.175781 967.660156 859.175781 C 965.179688 859.175781 961.871094 868.132812 960.3125 879.113281 C 955.488281 913.847656 941.707031 973.015625 926.035156 1026.492188 Z M 544.816406 1430.683594 C 571.507812 1425.722656 577.800781 1425.90625 603.667969 1432.703125 C 678.09375 1452.140625 680.480469 1452.367188 716.730469 1444.605469 C 753.527344 1436.65625 771.308594 1436.152344 834.386719 1441.160156 C 873.433594 1444.28125 878.992188 1443.730469 911.933594 1433.257812 C 945.011719 1422.78125 951.808594 1422.140625 1012.820312 1423.195312 L 1078.195312 1424.390625 L 1110.445312 1410.789062 C 1138.972656 1398.753906 1147.109375 1397.191406 1181.792969 1397.191406 C 1219.09375 1397.191406 1222.082031 1396.503906 1244.410156 1382.71875 C 1262.832031 1371.328125 1275.054688 1367.332031 1301.425781 1364.023438 C 1319.890625 1361.726562 1340.566406 1357.683594 1347.410156 1355.109375 C 1375.25 1344.589844 1392.480469 1315.511719 1384.945312 1291.757812 C 1383.292969 1286.519531 1373.6875 1273.429688 1363.582031 1262.628906 C 1353.519531 1251.882812 1340.703125 1232.816406 1335.144531 1220.320312 C 1322.785156 1192.527344 1312.21875 1182.417969 1281.484375 1168.914062 C 1259.800781 1159.355469 1257.273438 1156.78125 1251.027344 1138.085938 C 1239.632812 1103.855469 1229.710938 1091.636719 1202.140625 1077.714844 C 1188.085938 1070.59375 1175.636719 1062.375 1174.488281 1059.339844 C 1173.339844 1056.355469 1180.046875 1038.070312 1189.417969 1018.773438 C 1198.746094 999.433594 1206.417969 979.175781 1206.417969 973.75 C 1206.417969 959.511719 1190.382812 945.542969 1164.105469 936.953125 C 1112.832031 920.140625 1080.308594 895.742188 1080.308594 874.058594 C 1080.308594 868.777344 1085.039062 853.707031 1090.828125 840.660156 C 1096.570312 827.566406 1101.304688 811.996094 1101.304688 806.019531 C 1101.304688 791.550781 1263.566406 434.265625 1273.8125 426.226562 C 1278.222656 422.734375 1288.375 404.769531 1296.417969 386.304688 L 1310.976562 352.671875 L 1334.820312 349.59375 C 1398.085938 341.464844 1449.675781 298.1875 1487.898438 221.191406 C 1504.664062 187.421875 1504.207031 178.789062 1484.867188 161.464844 C 1465.296875 143.914062 1296.597656 61.3125 1265.542969 54.007812 C 1242.800781 48.683594 1242.664062 48.726562 1231.222656 60.949219 C 1216.984375 76.199219 1194.289062 137.898438 1190.0625 172.859375 C 1184.457031 219.304688 1195.757812 268.050781 1219.738281 300.851562 C 1224.011719 306.683594 1222.222656 314.082031 1209.539062 343.253906 C 1201.132812 362.644531 1194.382812 382.167969 1194.609375 386.625 C 1195.160156 398.980469 1030 759.207031 1019.390625 768.808594 C 1014.246094 773.402344 1006.664062 786.632812 1002.578125 798.210938 C 984.199219 849.988281 959.296875 851.550781 887.171875 805.5625 C 866.863281 792.605469 861.996094 791.230469 844.402344 793.296875 C 826.664062 795.410156 822.625 794.214844 807.046875 782.222656 C 769.789062 753.605469 764.875 750.941406 744.433594 748.230469 C 729.820312 746.300781 717.601562 741.015625 704.601562 731.089844 C 672.808594 706.878906 660.175781 701.824219 630.542969 701.6875 C 606.699219 701.550781 599.578125 703.574219 574.679688 717.308594 C 558.964844 725.992188 537.191406 735.085938 526.300781 737.523438 C 499.289062 743.542969 490.332031 750.296875 472.917969 777.535156 C 457.574219 801.472656 451.878906 805.148438 403.085938 822.925781 C 378.738281 831.792969 357.878906 852.46875 340.65625 884.71875 C 328.710938 907.136719 324.347656 911.320312 299.214844 923.953125 C 283.78125 931.761719 265.859375 943.0625 259.429688 949.039062 C 247.761719 959.925781 227.132812 998.792969 227.042969 1010.09375 C 226.949219 1026.21875 205.726562 1051.253906 178.941406 1066.921875 C 133.457031 1093.523438 115.773438 1111.621094 103.230469 1144.425781 C 90.460938 1177.914062 88.207031 1180.996094 63.078125 1199.554688 C 27.011719 1226.199219 0.046875 1264.101562 0.046875 1288.171875 C 0.046875 1315.878906 20.535156 1330.898438 71.484375 1340.546875 C 79.570312 1342.0625 98.910156 1350.886719 114.484375 1360.164062 C 147.699219 1379.964844 163.921875 1384.332031 204.4375 1384.464844 C 227.503906 1384.5625 240.042969 1387.132812 259.0625 1395.585938 C 279.1875 1404.542969 293.472656 1407.207031 336.289062 1409.917969 C 380.808594 1412.769531 393.992188 1415.339844 422.292969 1426.6875 C 451.695312 1438.449219 459.277344 1439.824219 485.324219 1438.128906 C 501.632812 1437.070312 528.414062 1433.71875 544.816406 1430.683594 Z M 760.832031 1018.914062 C 760.832031 1008.441406 785.367188 932.636719 803.464844 887.199219 C 826.710938 828.71875 839.023438 805.929688 848.671875 803.402344 C 854.09375 802.023438 867.648438 807.8125 886.527344 819.527344 C 924.523438 843.1875 943.035156 850.765625 962.792969 850.765625 C 985.210938 850.765625 1002.160156 835.285156 1013.324219 804.644531 L 1022.285156 780.109375 L 1037.582031 790.492188 C 1045.988281 796.234375 1060.964844 803.035156 1070.796875 805.652344 C 1080.628906 808.316406 1088.71875 811.765625 1088.71875 813.371094 C 1088.71875 814.980469 1083.984375 826.417969 1078.242188 838.777344 C 1065.652344 865.835938 1065.101562 878.011719 1075.761719 895.46875 C 1087.890625 915.363281 1109.574219 929.789062 1147.523438 943.246094 C 1186.847656 957.121094 1193.78125 961.761719 1193.78125 974.210938 C 1193.78125 994.289062 1129.648438 1107.441406 1085.730469 1164.820312 L 1062.527344 1195.144531 L 1050.632812 1188.988281 C 1044.058594 1185.589844 1029.128906 1182.832031 1017.460938 1182.832031 C 1005.789062 1182.832031 996.234375 1181.085938 996.234375 1178.925781 C 996.234375 1172.402344 970.78125 1149.203125 963.617188 1149.203125 C 959.941406 1149.203125 951.03125 1142.769531 943.816406 1134.914062 C 931.503906 1121.453125 908.304688 1111.484375 889.054688 1111.347656 C 883.679688 1111.300781 877.203125 1105.238281 871.09375 1094.53125 C 861.261719 1077.304688 836.128906 1060.902344 819.589844 1060.902344 C 814.722656 1060.902344 806.039062 1055.34375 800.296875 1048.5 C 794.554688 1041.699219 783.34375 1033.753906 775.351562 1030.855469 C 767.078125 1027.871094 760.832031 1022.726562 760.832031 1018.914062 Z M 1038.273438 772.667969 C 1038.273438 767.980469 1105.621094 617.203125 1193.277344 425.71875 L 1206.003906 397.878906 L 1230.355469 410.285156 C 1243.769531 417.085938 1254.195312 424.890625 1253.507812 427.601562 C 1251.988281 433.898438 1224.242188 495.871094 1148.945312 661.628906 C 1112.558594 741.703125 1086.238281 794.535156 1082.328125 795.410156 C 1072.910156 797.386719 1038.273438 779.558594 1038.273438 772.667969 Z M 1270.6875 410.742188 C 1266.828125 413.128906 1229.757812 398.109375 1214.730469 388.046875 L 1204.808594 381.386719 L 1220.152344 349 L 1235.542969 316.65625 L 1251.441406 326.671875 C 1260.214844 332.183594 1274.457031 339.261719 1283.136719 342.382812 C 1295.679688 346.882812 1298.390625 349.6875 1296.371094 356.027344 C 1291.410156 371.695312 1274.042969 408.675781 1270.6875 410.742188 Z M 1405.664062 307.882812 C 1349.570312 350.976562 1277.625 345.09375 1232.375 293.683594 C 1209.402344 267.589844 1200.074219 239.335938 1200.445312 197.117188 C 1200.8125 155.128906 1220.476562 91.453125 1241.054688 65.769531 C 1245.925781 59.707031 1248.546875 59.382812 1255.898438 64.070312 C 1260.078125 66.691406 1259.019531 72.476562 1251.164062 90.257812 C 1214.410156 173.320312 1223.644531 258.953125 1273.035156 293.640625 C 1288.882812 304.800781 1294.714844 306.410156 1319.203125 306.367188 C 1343 306.273438 1351.222656 304.113281 1373.828125 291.941406 C 1404.699219 275.261719 1435.574219 242.871094 1457.164062 204.511719 C 1474.117188 174.328125 1478.207031 170.792969 1486.335938 178.921875 C 1491.390625 183.976562 1490.195312 188.984375 1478.113281 214.066406 C 1461.53125 248.664062 1430.425781 288.859375 1405.664062 307.882812 Z M 1245.835938 234.007812 C 1238.945312 211.175781 1238.34375 173.964844 1244.457031 151.957031 C 1246.84375 143.273438 1250.429688 136.199219 1252.355469 136.199219 C 1261.042969 136.199219 1429.1875 220.316406 1429.1875 224.679688 C 1429.1875 227.347656 1417.976562 240.484375 1404.285156 253.902344 C 1340.472656 316.332031 1267.886719 307.191406 1245.835938 234.007812 Z M 1415.171875 199.230469 C 1345.664062 167.667969 1257.78125 124.253906 1255.296875 120.253906 C 1253.738281 117.773438 1257.136719 105.191406 1262.832031 92.324219 C 1268.527344 79.460938 1274.917969 68.941406 1276.984375 68.941406 C 1280.425781 68.941406 1462.953125 156.136719 1466.351562 159.398438 C 1467.179688 160.179688 1461.804688 172.125 1454.453125 185.90625 L 1441.082031 210.992188 Z M 1415.171875 199.230469 " fill-opacity="1" fill-rule="evenodd"/></g></svg>